<?xml version="1.0" standalone="yes"?>
<svg xmlns="http://www.w3.org/2000/svg" width="687" height="284">
<path style="fill:#030302; stroke:none;" d="M0 0L0 284L687 284L687 0L0 0z"/>
<path style="fill:#0283d9; stroke:none;" d="M68 11C62.7208 21.4273 52.1513 28.8075 46.8897 40C28.3688 79.3977 29.0257 126.205 37.3997 168C40.2717 182.334 44.5939 220.658 66 217C49.8031 164.347 38.2892 110.733 54.1698 56.0147C57.5687 44.3034 62.4287 31.8575 69.7608 22C73.7315 16.6616 81.9111 12.6953 83 6L68 11z"/>
<path style="fill:#f5e322; stroke:none;" d="M91 229C94.1431 215.453 81.9353 193.839 79.2577 180C71.8558 141.743 66.1947 104.787 73.804 66C76.3927 52.8045 81.9589 41.29 88.7431 29.8302C91.6703 24.8856 94.8621 18.169 101 17L100 14L107 11L107 6C83.665 9.25568 71.722 29.3995 64.4961 50C50.5192 89.8477 52.2422 131.053 59.9198 172C63.8298 192.854 67.4458 223.405 91 229z"/>
<path style="fill:#b41320; stroke:none;" d="M107 7L107 10L108 10L107 7z"/>
<path style="fill:#03479d; stroke:none;" d="M76 8L77 9L76 8z"/>
<path style="fill:#b41320; stroke:none;" d="M105 232C107.571 227.393 112.953 222.367 113.596 216.999C114.239 211.637 110.175 204.039 108.424 199C104.65 188.136 101.142 176.717 98.9298 165.424C92.1603 130.86 89.009 96.8251 96.4097 62C100.495 42.7741 110.121 18.1438 131 12L131 8C107.767 8.01532 93.4616 28.816 86.6674 49C73.2537 88.8492 74.7472 139.69 85.706 180C89.2593 193.07 91.9775 206.233 96.6813 219C98.546 224.061 99.3711 230.296 105 232z"/>
<path style="fill:#03479d; stroke:none;" d="M150 11L151 12L150 11z"/>
<path style="fill:#0283d9; stroke:none;" d="M118 202C117.766 205.902 119.17 207.351 123 208C124.014 202.741 128.183 198.338 128.633 193C129.604 181.457 121.717 165.585 119.614 154C115.069 128.958 112.973 102.435 115.799 77C117.168 64.6741 118.005 39.9121 130 33C130.69 29.2663 132.237 26.197 136 25C140.347 19.0109 147.517 15.231 155 16L156 12C134.173 7.74045 116.489 24.4379 108.569 43C94.4868 76.002 96.084 126.811 104.731 161C107.391 171.517 109.087 195.307 118 202z"/>
<path style="fill:#03479d; stroke:none;" d="M154 11L155 12L154 11M66 14L67 15L66 14z"/>
<path style="fill:#b41320; stroke:none;" d="M100 14L101 15L100 14M74 16L75 17L74 16z"/>
<path style="fill:#03479d; stroke:none;" d="M147.667 16.3333L148.333 16.6667L147.667 16.3333z"/>
<path style="fill:#f5e322; stroke:none;" d="M162 17L163 18L162 17z"/>
<path style="fill:#0283d9; stroke:none;" d="M162 18L162 20C170.043 23.9779 175.526 29.397 180.29 37C185.444 45.2239 185.398 52.5376 196 55C194.87 40.4326 179.682 13.0821 162 18z"/>
<path style="fill:#03479d; stroke:none;" d="M166 17L167 18L166 17M170 18L171 19L170 18M140 19L141 20L140 19z"/>
<path style="fill:#b41320; stroke:none;" d="M94.3333 20.6667L94.6667 21.3333L94.3333 20.6667M146 20L158.96 30.1049L172 51L150 51C152.482 54.8289 156.794 53.9997 161 54C170.384 54.0006 179.657 54.9938 189 55C187.072 51.8294 183.451 50.999 181.403 47.8665C171.283 32.3908 166.764 20 146 20M138 21L139 22L138 21z"/>
<path style="fill:#f5e322; stroke:none;" d="M167 22L168 23L167 22z"/>
<path style="fill:#03479d; stroke:none;" d="M57 23L58 24L57 23z"/>
<path style="fill:#b41320; stroke:none;" d="M68 23L69 24L68 23z"/>
<path style="fill:#03479d; stroke:none;" d="M134 24L135 25L134 24z"/>
<path style="fill:#f5e322; stroke:none;" d="M136 30C150.969 32.7187 150.093 51.9877 166 52C165.727 42.6033 158.482 32.4076 150.907 27.044C145.429 23.1655 138.116 22.603 136 30z"/>
<path style="fill:#030302; stroke:none;" d="M147 24L147 25C155.602 30.4693 164.681 40.481 166 51L172 51C167.208 39.491 160.989 25.4329 147 24z"/>
<path style="fill:#0283d9; stroke:none;" d="M164 24L165 25L164 24z"/>
<path style="fill:#03479d; stroke:none;" d="M171 25L172 26L171 25z"/>
<path style="fill:#b41320; stroke:none;" d="M151 27L152 28L151 27z"/>
<path style="fill:#03479d; stroke:none;" d="M129 30L130 31L129 30z"/>
<path style="fill:#0283d9; stroke:none;" d="M154 30L155 31L154 30M132 32C125.896 40.7997 140.686 53.747 150 51C147.24 41.5993 141.557 34.6352 132 32z"/>
<path style="fill:#03479d; stroke:none;" d="M591 32L592 33L591 32M50 33L51 34L50 33z"/>
<path style="fill:#b41320; stroke:none;" d="M62 33L63 34L62 33z"/>
<path style="fill:#03479d; stroke:none;" d="M187 33L188 34L187 33M589 33L590 34L589 33z"/>
<path style="fill:#f5e322; stroke:none;" d="M590 33C585.312 38.9145 582.278 36.1203 576 37.0123C567.715 38.1897 564.71 42.0503 556 40C551.43 50.0108 536.507 49.0469 527.17 43.9768C522.641 41.518 519.809 36.2379 514.004 36.2662C500.596 36.3316 503.967 52.4086 501.583 60C499.582 66.3733 495.358 71.1079 495 78L505 78L505 79L495 79C493.674 87.8521 493.871 101.191 489.142 108.995C485.014 115.808 475.021 117.469 476 127C469.969 128.831 468.266 147.059 469 153L459 159L447 164L447 157L435.791 162.31L425.368 165.134L420 177C433.904 180.995 454.311 176 469 176L469 172L470 172L470 176C481.214 177.768 479.56 196.461 487.633 203.396C490.8 206.116 495.387 204.129 499 203.654C509.15 202.322 512.088 202.943 513 191L517 191C512.381 177.987 486.483 182.829 486 168L487 168L487 174C491.898 175.811 513.87 186.678 515 181L516 181C516.279 189.777 520.312 190.601 528 190L527 194L543 194L544.188 222L549.365 233L550 245L576 242L577 248L589 245C589.31 254.456 608.268 260.377 610 250L614 251L613 253L629.56 264.769L638.104 272.868L646 271C646 266.614 647.033 261.615 643 259L643 263C637.824 260.825 629.818 257.344 628.218 251.246C626.678 245.374 631.106 236.473 630.876 230.001C630.703 225.144 626.446 221.708 629.167 216.997C632.976 210.404 639.974 211.786 644 207L655 207C650.889 198.005 642.892 191.16 639.789 182C638.105 177.027 641.082 170.527 635.61 167.028C628.236 162.314 608.71 166 600 166L600 173L599 173L600 164L637 165L636 157L636 124L621 128L621 127L628 124C637.876 124.297 642.993 119.473 643 110L639 109C643.007 102.235 650.367 95.7599 645 88L650 90L664 72C657.066 68.7483 658.537 62.6017 660 56L653 54L653 53L655 52L643.737 43.2963L626.714 45.5625L610 35L616 57L616 58L612 58C612.499 49.4155 611.207 43.4614 607 36L590 33z"/>
<path style="fill:#03479d; stroke:none;" d="M593 33L594 34L593 33z"/>
<path style="fill:#0283d9; stroke:none;" d="M589 34L590 35L589 34z"/>
<path style="fill:#03479d; stroke:none;" d="M600 34L601 35L600 34M611 34L612 35L611 34M512 35L513 36L512 35z"/>
<path style="fill:#0283d9; stroke:none;" d="M513 35L514 36L513 35z"/>
<path style="fill:#03479d; stroke:none;" d="M514.667 35.3333L515.333 35.6667L514.667 35.3333M602 35L603 36L602 35M613 35L614 36L613 35M510 36L511 37L510 36M578 36L579 37L578 36M587 36L588 37L587 36z"/>
<path style="fill:#0283d9; stroke:none;" d="M603.667 36.3333L604.333 36.6667L603.667 36.3333M607 36L608 37L607 36M609 36L610 37L609 36z"/>
<path style="fill:#03479d; stroke:none;" d="M615 36L616 37L615 36z"/>
<path style="fill:#f5e322; stroke:none;" d="M142 37L143 38L142 37M175 37L176 38L175 37z"/>
<path style="fill:#03479d; stroke:none;" d="M509 37L510 38L509 37M518.667 37.3333L519.333 37.6667L518.667 37.3333M574 37L575 38L574 37M583 37L583 38L586 38L583 37M608 37L613 43L608 37M616 37L617 38L616 37z"/>
<path style="fill:#f5e322; stroke:none;" d="M143 38L144 39L143 38M181 38L182 39L181 38z"/>
<path style="fill:#03479d; stroke:none;" d="M507.333 38.6667L507.667 39.3333L507.333 38.6667M520 38L521 39L520 38M571 38L572 39L571 38M617 38L618 39L617 38M568 39L569 40L568 39z"/>
<path style="fill:#0283d9; stroke:none;" d="M569 39L570 40L569 39z"/>
<path style="fill:#03479d; stroke:none;" d="M59.3333 40.6667L59.6667 41.3333L59.3333 40.6667M182 40L183 41L182 40z"/>
<path style="fill:#0283d9; stroke:none;" d="M506 40L507 41L506 40z"/>
<path style="fill:#03479d; stroke:none;" d="M508 40L510 42L508 40M523 40L524 41L523 40z"/>
<path style="fill:#0283d9; stroke:none;" d="M558 40L559 41L558 40z"/>
<path style="fill:#03479d; stroke:none;" d="M559 40L560 41L559 40M566 40L567 41L566 40M619.333 40.6667L619.667 41.3333L619.333 40.6667M109 41L110 42L109 41M505 41L506 42L505 41z"/>
<path style="fill:#0283d9; stroke:none;" d="M510 41L511 42L510 41z"/>
<path style="fill:#03479d; stroke:none;" d="M524 41L525 42L524 41M555 41L556 42L555 41z"/>
<path style="fill:#0283d9; stroke:none;" d="M561 41L562 42L561 41M564 41L565 42L564 41z"/>
<path style="fill:#03479d; stroke:none;" d="M504.333 42.6667L504.667 43.3333L504.333 42.6667M511 42L511 43L513 45L514 45L511 42M563 42L564 43L563 42M620 42L621 43L620 42z"/>
<path style="fill:#0283d9; stroke:none;" d="M642 42L643 43L642 42M644 42L645 43L644 42z"/>
<path style="fill:#03479d; stroke:none;" d="M45 43L46 44L45 43M525 43L526 44L525 43M554 43L555 44L554 43z"/>
<path style="fill:#030302; stroke:none;" d="M612 43L613 44L612 43z"/>
<path style="fill:#0283d9; stroke:none;" d="M622 43L623 44L622 43z"/>
<path style="fill:#03479d; stroke:none;" d="M632.667 43.3333L633.333 43.6667L632.667 43.3333M641 43L642 44L641 43M193 44L194 45L193 44M503 44L504 45L503 44M526 44L526 45L529 45L526 44z"/>
<path style="fill:#0283d9; stroke:none;" d="M529 44L529 45L532 45L529 44z"/>
<path style="fill:#03479d; stroke:none;" d="M532 44L533 45L532 44M553 44L554 45L553 44M612 44L612 58L616 58L616 57L613 57L612 44M624 44L625 45L624 44M631 44L632 45L631 44z"/>
<path style="fill:#0283d9; stroke:none;" d="M636 44L637 45L636 44z"/>
<path style="fill:#03479d; stroke:none;" d="M640 44L641 45L640 44z"/>
<path style="fill:#0283d9; stroke:none;" d="M169 45L170 46L169 45z"/>
<path style="fill:#03479d; stroke:none;" d="M501 45L502 46L501 45z"/>
<path style="fill:#0283d9; stroke:none;" d="M512 45L513 46L512 45M611 45L612 46L611 45z"/>
<path style="fill:#03479d; stroke:none;" d="M625 45L626 46L625 45M630 45L631 46L630 45M638.667 45.3333L639.333 45.6667L638.667 45.3333M193 46L194 47L193 46z"/>
<path style="fill:#0283d9; stroke:none;" d="M501 46L502 47L501 46z"/>
<path style="fill:#03479d; stroke:none;" d="M512 46L513 47L512 46M538 46L538 47L541 47L538 46M542 46L543 47L542 46M552 46L553 47L552 46M628 46L629 47L628 46M501 47L502 48L501 47z"/>
<path style="fill:#0283d9; stroke:none;" d="M511 47L512 48L511 47z"/>
<path style="fill:#03479d; stroke:none;" d="M546 47L547 48L546 47z"/>
<path style="fill:#0283d9; stroke:none;" d="M648 47L649 48L648 47z"/>
<path style="fill:#03479d; stroke:none;" d="M106 48L107 49L106 48M511 48L514 51L514 50L511 48z"/>
<path style="fill:#0283d9; stroke:none;" d="M515 48L515 50L517 48L515 48M549.667 48.3333L550.333 48.6667L549.667 48.3333z"/>
<path style="fill:#03479d; stroke:none;" d="M553 48L553 49L557 52L553 48M514 49L515 50L514 49z"/>
<path style="fill:#0283d9; stroke:none;" d="M517 49L518 50L517 49z"/>
<path style="fill:#03479d; stroke:none;" d="M518.667 49.3333L519.333 49.6667L518.667 49.3333z"/>
<path style="fill:#0283d9; stroke:none;" d="M554 49L555 50L554 49z"/>
<path style="fill:#03479d; stroke:none;" d="M520 50L521 51L520 50M652 50L653 51L652 50z"/>
<path style="fill:#b41320; stroke:none;" d="M170 141C182.314 141 198.495 141.749 207.66 131.815C214.063 124.873 214 113.84 214 105C214 85.9013 217.157 62.8692 196 54C197.906 60.4804 205.212 63.5839 208.095 70C213.895 82.9073 214.198 112.181 208.08 124.999C203.504 134.589 191.778 137.532 182 137.961C178.598 138.11 172.452 136.772 169.603 139.028C166.4 141.565 168 150.368 168 154L168 196L132 196L132 54L141 54C138.778 50.5726 130.837 49.0314 129.318 54.1481C126.526 63.5529 129 77.1847 129 87L129 160C129 169.567 125.384 188.107 129.603 196.682C131.05 199.622 135.296 198.994 138 199L161 199C163.607 198.999 167.966 199.739 169.821 197.397C172.366 194.183 171 186.851 171 183C171 169.576 173.116 154.087 170 141z"/>
<path style="fill:#03479d; stroke:none;" d="M140 51L141 52L140 51M149 51L141 52L142 54L132 54L132 196L168 196L168 158C168 153.117 166.621 145.689 168.603 141.148C170.425 136.975 176.322 138.017 180 137.999C187.963 137.96 197.584 136.806 203.895 131.468C211.64 124.915 211 113.171 211 104C211 84.8566 212.88 58.802 189 53C185.232 55.8508 181.43 54.3929 177 54.0895C168.791 53.5274 155.35 57.0621 149 51M195 51L196 52L195 51z"/>
<path style="fill:#b41320; stroke:none;" d="M227.603 52.0278C224.4 54.5646 226 63.3675 226 67L226 109L226 171C226 177.873 223.551 190.478 226.603 196.682C228.812 201.17 241.774 199 246 199C263.58 199 292.223 204.219 306.996 192.606C321.738 181.018 317 153.564 317 137C317 114.202 325.524 69.9755 302 56.5324C289.929 49.6341 274.34 51 261 51C253.652 51 233.404 47.4336 227.603 52.0278M333 82L334 82L335 54L360 54L369.972 56.3179L371 80L374 80C374 73.7379 376.918 57.5858 372.972 52.6034C369.148 47.7754 347.939 50.9973 342 51C339.383 51.0012 334.891 50.2505 333.028 52.6034C329.235 57.3927 331.349 76.414 333 82z"/>
<path style="fill:#0283d9; stroke:none;" d="M513 51L514 52L513 51M521 51L522 52L521 51M556 53L559 51L556 53z"/>
<path style="fill:#03479d; stroke:none;" d="M559 51L558 54L558 55L566 51L559 51z"/>
<path style="fill:#0283d9; stroke:none;" d="M612 51L613 52L612 51z"/>
<path style="fill:#03479d; stroke:none;" d="M654 51L655 52L654 51M521 52L522 53L521 52z"/>
<path style="fill:#030302; stroke:none;" d="M564 52L563 54L564 52M141 53L142 54L141 53M150 53L151 54L150 53z"/>
<path style="fill:#0283d9; stroke:none;" d="M522 53L523 54L522 53z"/>
<path style="fill:#03479d; stroke:none;" d="M653 53L653 54L656 54L653 53M54 54L55 55L54 54M229 54L229 196L279 196C288.076 196 298.666 195.906 305.957 189.66C313.785 182.953 313.953 170.59 313.999 161C314.11 138.032 314.548 114.961 313.985 92C313.739 81.9639 313.194 69.4873 304.907 62.5293C297.526 56.3329 288.159 55.5524 279 54.9105C262.363 53.7445 245.704 54 229 54M335 54L335 81L347 81L350 65C358.933 73.8391 356.554 80 371 80L369.972 55.6034L361 54L335 54M522 54L522 57L523 57L522 54z"/>
<path style="fill:#0283d9; stroke:none;" d="M560 54L561 55L560 54z"/>
<path style="fill:#03479d; stroke:none;" d="M652 54L648 61L646 72C650.38 69.3132 650.373 65.6567 649 61C652.371 60.2812 653.48 56.9804 652 54M656 54L656 55L659 55L656 54M553 56L558 63L559 63L559 58L557 60L556 60L554 57L558 56L553 56M659 55L660 56L659 55M502 56L502 59L503 59L502 56z"/>
<path style="fill:#0283d9; stroke:none;" d="M555 56L556 57L555 56z"/>
<path style="fill:#030302; stroke:none;" d="M196 57L197 58L196 57z"/>
<path style="fill:#0283d9; stroke:none;" d="M522 57L522 60L523 60L522 57M552 57L553 58L552 57M652 57L653 58L652 57z"/>
<path style="fill:#03479d; stroke:none;" d="M53 58L54 59L53 58z"/>
<path style="fill:#0283d9; stroke:none;" d="M555 58L556 59L555 58z"/>
<path style="fill:#030302; stroke:none;" d="M616 58L617 59L616 58z"/>
<path style="fill:#0283d9; stroke:none;" d="M659 58L660 59L659 58M554 59L555 60L554 59z"/>
<path style="fill:#030302; stroke:none;" d="M558.333 59.6667L558.667 60.3333L558.333 59.6667z"/>
<path style="fill:#0283d9; stroke:none;" d="M559.333 59.6667L559.667 60.3333L559.333 59.6667z"/>
<path style="fill:#03479d; stroke:none;" d="M616 59L615 64L616 64L616 59z"/>
<path style="fill:#0283d9; stroke:none;" d="M617.333 59.6667L617.667 60.3333L617.333 59.6667M523 60L524 61L523 60z"/>
<path style="fill:#03479d; stroke:none;" d="M658.333 60.6667L658.667 61.3333L658.333 60.6667z"/>
<path style="fill:#0283d9; stroke:none;" d="M522 61L522 63L524 63L522 61M529 61L530 62L529 61M552 61L552 62L556 62L552 61M649 61L650 62L649 61M500 62L501 63L500 62z"/>
<path style="fill:#03479d; stroke:none;" d="M527 62L528 63L527 62z"/>
<path style="fill:#030302; stroke:none;" d="M528 62L529 63L528 62z"/>
<path style="fill:#03479d; stroke:none;" d="M529 62L530 63L529 62z"/>
<path style="fill:#0283d9; stroke:none;" d="M531.667 62.3333L532.333 62.6667L531.667 62.3333M534.667 62.3333L535.333 62.6667L534.667 62.3333z"/>
<path style="fill:#03479d; stroke:none;" d="M536 62L537 63L536 62z"/>
<path style="fill:#0283d9; stroke:none;" d="M551 62L552 63L551 62z"/>
<path style="fill:#03479d; stroke:none;" d="M608 62L608 63L608 64L612 64L612 63L612 62L608 62z"/>
<path style="fill:#030302; stroke:none;" d="M609 62L610 63L609 62z"/>
<path style="fill:#03479d; stroke:none;" d="M103 63L104 64L103 63M523 63L523 64L527 64L523 63z"/>
<path style="fill:#0283d9; stroke:none;" d="M538 63L539 64L538 63M558 63L559 64L558 63z"/>
<path style="fill:#030302; stroke:none;" d="M612 63L613 64L612 63z"/>
<path style="fill:#03479d; stroke:none;" d="M613.333 63.6667L613.667 64.3333L613.333 63.6667M659 63L660 64L659 63M499.333 64.6667L499.667 65.3333L499.333 64.6667z"/>
<path style="fill:#0283d9; stroke:none;" d="M540.667 64.3333L541.333 64.6667L540.667 64.3333M543 64L544 65L543 64z"/>
<path style="fill:#03479d; stroke:none;" d="M544 64L545 65L544 64z"/>
<path style="fill:#0283d9; stroke:none;" d="M545 64L546 65L545 64M548 64L549 65L548 64z"/>
<path style="fill:#030302; stroke:none;" d="M608.333 64.6667L608.667 65.3333L608.333 64.6667z"/>
<path style="fill:#0283d9; stroke:none;" d="M609 64L610 65L609 64z"/>
<path style="fill:#030302; stroke:none;" d="M614 64L615 65L614 64z"/>
<path style="fill:#0283d9; stroke:none;" d="M659 64L660 65L659 64M350.667 65.3333L351.333 65.6667L350.667 65.3333z"/>
<path style="fill:#03479d; stroke:none;" d="M558.333 65.6667L558.667 66.3333L558.333 65.6667z"/>
<path style="fill:#0283d9; stroke:none;" d="M607 65L608 66L607 65z"/>
<path style="fill:#03479d; stroke:none;" d="M659 65L660 66L659 65z"/>
<path style="fill:#f5e322; stroke:none;" d="M350 66C347.839 82.7369 339.78 81.9042 325 80C327.045 86.5346 338.99 89.4977 345 92L341 109L356 99.507L373 107C371.052 102.827 364.282 94.8755 366.816 90.1744C369.554 85.0962 376.185 84.8839 378 79L359.39 79.3958L350 66z"/>
<path style="fill:#03479d; stroke:none;" d="M608 66L610 72L611 72L608 66z"/>
<path style="fill:#0283d9; stroke:none;" d="M352 67L353 68L352 67M559 67L559 68L563 68L559 67z"/>
<path style="fill:#03479d; stroke:none;" d="M641 67L634 70L634 71L641 69L645 73L645 72L643 69L641 69L641 68C642.396 67.3017 642.396 67.6982 641 67z"/>
<path style="fill:#0283d9; stroke:none;" d="M642 67L643 68L642 67M658 67L659 68L658 67z"/>
<path style="fill:#03479d; stroke:none;" d="M116 68L117 69L116 68z"/>
<path style="fill:#0283d9; stroke:none;" d="M349.333 68.6667L349.667 69.3333L349.333 68.6667z"/>
<path style="fill:#03479d; stroke:none;" d="M497 68L498 69L497 68z"/>
<path style="fill:#0283d9; stroke:none;" d="M637 68L638 69L637 68z"/>
<path style="fill:#030302; stroke:none;" d="M641.667 68.3333L642.333 68.6667L641.667 68.3333z"/>
<path style="fill:#03479d; stroke:none;" d="M658.333 68.6667L658.667 69.3333L658.333 68.6667z"/>
<path style="fill:#0283d9; stroke:none;" d="M353 69L354 70L353 69M565 69L566 70L565 69M579 71L582 71L581 69L579 71z"/>
<path style="fill:#03479d; stroke:none;" d="M595 69L595 70L600 74L609 73L609 72L601 73L595 69M627 69L626 77L617 77L616 81L612 80L612 81L615 83L619 81L618 78C624.34 78.6548 628.659 75.9378 627 69z"/>
<path style="fill:#0283d9; stroke:none;" d="M628.333 69.6667L628.667 70.3333L628.333 69.6667z"/>
<path style="fill:#03479d; stroke:none;" d="M632 69L633 70L632 69z"/>
<path style="fill:#0283d9; stroke:none;" d="M633 69L634 70L633 69M635 69L636 70L635 69M640 69L641 70L640 69z"/>
<path style="fill:#03479d; stroke:none;" d="M667 69L668 73L667 69M496 70L497 71L496 70M566 70L567 71L566 70M574 71L574 72L579 71L574 71M582.667 70.3333L583.333 70.6667L582.667 70.3333M586 70L586 71L589 71L586 70M593.667 70.3333L594.333 70.6667L593.667 70.3333z"/>
<path style="fill:#0283d9; stroke:none;" d="M600 70L601 71L600 70z"/>
<path style="fill:#03479d; stroke:none;" d="M629 70L629 71L632 71L629 70M659 70L660 71L659 70z"/>
<path style="fill:#0283d9; stroke:none;" d="M354 71L355 72L354 71M524 71L524 72L527 72L524 71M562 71L561 73L562 71z"/>
<path style="fill:#03479d; stroke:none;" d="M563 71L564 72L563 71z"/>
<path style="fill:#0283d9; stroke:none;" d="M565.333 71.6667L565.667 72.3333L565.333 71.6667z"/>
<path style="fill:#030302; stroke:none;" d="M566.667 71.3333L567.333 71.6667L566.667 71.3333z"/>
<path style="fill:#0283d9; stroke:none;" d="M568 71L567 73L568 71z"/>
<path style="fill:#03479d; stroke:none;" d="M568 72L568 73L574 73L568 72M584.667 71.3333L585.333 71.6667L584.667 71.3333M589 71L589 72L593 72L589 71z"/>
<path style="fill:#0283d9; stroke:none;" d="M604 71L605 72L604 71M608 71L609 72L608 71z"/>
<path style="fill:#03479d; stroke:none;" d="M36 72L37 73L36 72z"/>
<path style="fill:#0283d9; stroke:none;" d="M348 72L348 75L349 75L348 72M495 72L496 73L495 72z"/>
<path style="fill:#03479d; stroke:none;" d="M566 72L567 73L566 72z"/>
<path style="fill:#0283d9; stroke:none;" d="M603 72L604 73L603 72z"/>
<path style="fill:#030302; stroke:none;" d="M609.667 72.3333L610.333 72.6667L609.667 72.3333M645 72L646 73L645 72z"/>
<path style="fill:#03479d; stroke:none;" d="M664 72L665 73L664 72z"/>
<path style="fill:#0283d9; stroke:none;" d="M355 73L356 74L355 73M550.333 73.6667L550.667 74.3333L550.333 73.6667z"/>
<path style="fill:#03479d; stroke:none;" d="M551 73L552 74L551 73z"/>
<path style="fill:#0283d9; stroke:none;" d="M552 73L553 74L552 73M558.667 73.3333L559.333 73.6667L558.667 73.3333z"/>
<path style="fill:#03479d; stroke:none;" d="M610.667 73.3333L611.333 73.6667L610.667 73.3333z"/>
<path style="fill:#0283d9; stroke:none;" d="M664 73L665 74L664 73M554 74L554 75L557 75L554 74M611 74L612 75L611 74z"/>
<path style="fill:#030302; stroke:none;" d="M612 74L613 75L612 74z"/>
<path style="fill:#03479d; stroke:none;" d="M613 74L613 79L614 79L613 74z"/>
<path style="fill:#0283d9; stroke:none;" d="M663 74L664 75L663 74z"/>
<path style="fill:#03479d; stroke:none;" d="M667 74L655 89C659.677 86.6355 668.919 79.8928 667 74z"/>
<path style="fill:#0283d9; stroke:none;" d="M356 75L357 76L356 75z"/>
<path style="fill:#03479d; stroke:none;" d="M509.667 75.3333L510.333 75.6667L509.667 75.3333M662 75L663 76L662 75M115.333 76.6667L115.667 77.3333L115.333 76.6667z"/>
<path style="fill:#b41320; stroke:none;" d="M169.603 77.0671C167.052 78.9045 168 84.3109 168 87C168 93.6344 164.039 123.395 177.772 113.91C184.583 109.207 183.428 88.8901 180.736 82.044C179.364 78.5542 173.39 74.3407 169.603 77.0671M266.434 77.0671C261.611 80.082 264 94.0775 264 99L264 158C264 163.926 262.747 177.651 272.942 172.566C280.018 169.036 278 157.466 278 151C278 129.701 278.653 108.287 277.985 87C277.825 81.9308 272.922 73.0111 266.434 77.0671z"/>
<path style="fill:#0283d9; stroke:none;" d="M507 76L505 77L505 78L507 76M512.667 76.3333L513.333 76.6667L512.667 76.3333M625 76L626 77L625 76M660 76L655 82L660 76z"/>
<path style="fill:#03479d; stroke:none;" d="M661 76L662 77L661 76z"/>
<path style="fill:#0283d9; stroke:none;" d="M347.333 77.6667L347.667 78.3333L347.333 77.6667M357 77L358 78L357 77z"/>
<path style="fill:#03479d; stroke:none;" d="M516 77L517 78L516 77z"/>
<path style="fill:#030302; stroke:none;" d="M517 77L518 78L517 77z"/>
<path style="fill:#0283d9; stroke:none;" d="M551 77L552 78L551 77z"/>
<path style="fill:#03479d; stroke:none;" d="M660 77L661 78L660 77z"/>
<path style="fill:#f5e322; stroke:none;" d="M170 78L170 114C177.246 111.595 175.564 82.0129 170 78z"/>
<path style="fill:#03479d; stroke:none;" d="M495 78L496 79L495 78z"/>
<path style="fill:#0283d9; stroke:none;" d="M496 78L497 79L496 78z"/>
<path style="fill:#03479d; stroke:none;" d="M497 78L498 79L497 78z"/>
<path style="fill:#0283d9; stroke:none;" d="M498 78L498 79L501 79L498 78z"/>
<path style="fill:#03479d; stroke:none;" d="M501 78L502 79L501 78z"/>
<path style="fill:#0283d9; stroke:none;" d="M502 78L502 79L505 79L502 78z"/>
<path style="fill:#03479d; stroke:none;" d="M550.667 78.3333L551.333 78.6667L550.667 78.3333M659 78L660 79L659 78M49 79L50 80L49 79z"/>
<path style="fill:#030302; stroke:none;" d="M173 79L174 112C181.449 107.648 180.233 83.058 173 79M267 79L267 171C276.51 168.182 275 160.54 275 152L275 99C275 90.933 277.507 80.1743 267 79z"/>
<path style="fill:#0283d9; stroke:none;" d="M358 79L359 80L358 79M546 79L546 80L546 81L549 81L549 80L546 79z"/>
<path style="fill:#03479d; stroke:none;" d="M548 79L549 80L548 79z"/>
<path style="fill:#030302; stroke:none;" d="M549 79L549 82L550 82L551 79L549 79M612 79L613 80L612 79z"/>
<path style="fill:#0283d9; stroke:none;" d="M613 79L614 80L613 79z"/>
<path style="fill:#03479d; stroke:none;" d="M658 79L659 80L658 79z"/>
<path style="fill:#b41320; stroke:none;" d="M49 80L50 81L49 80z"/>
<path style="fill:#03479d; stroke:none;" d="M330 80L331 81L330 80z"/>
<path style="fill:#0283d9; stroke:none;" d="M331 80L332 81L331 80M359 80L359 81L367 81L359 80z"/>
<path style="fill:#03479d; stroke:none;" d="M545 80L545 85L546 85L545 80z"/>
<path style="fill:#030302; stroke:none;" d="M615 80L616 81L615 80z"/>
<path style="fill:#03479d; stroke:none;" d="M657 80L658 81L657 80z"/>
<path style="fill:#0283d9; stroke:none;" d="M336.667 81.3333L337.333 81.6667L336.667 81.3333z"/>
<path style="fill:#03479d; stroke:none;" d="M494.333 81.6667L494.667 82.3333L494.333 81.6667z"/>
<path style="fill:#0283d9; stroke:none;" d="M617 81L618 82L617 81z"/>
<path style="fill:#03479d; stroke:none;" d="M656 81L657 82L656 81M115 82L116 83L115 82z"/>
<path style="fill:#0283d9; stroke:none;" d="M528 82L529 83L528 82M549 82L550 83L549 82z"/>
<path style="fill:#03479d; stroke:none;" d="M550 82L558 97L559 97C557.148 91.2188 555.719 84.931 550 82M655 82L656 83L655 82M528 83L529 84L528 83M616 83L617 84L616 83M654 83L655 84L654 83M493.333 84.6667L493.667 85.3333L493.333 84.6667M511 84L512 85L511 84M618 84L619 93L620 95C625.718 100.068 620.939 103.086 620 109C626.906 101.2 623.991 91.7587 618 84z"/>
<path style="fill:#b41320; stroke:none;" d="M70.3333 85.6667L70.6667 86.3333L70.3333 85.6667M370 86L373 106L373 107L371 121L371 155L372.028 167.397L393 169L393 196L335 196L335 114C335 107.266 338.083 89.9436 332 86L332 170C332 175.521 329.058 194.372 333.603 197.972C338.988 202.237 357.214 199 364 199C370.749 199 390.458 202.336 395.397 197.397C398.592 194.201 399.002 169.883 395.397 167.028C391.259 163.751 379.132 166 374 166L374 85L370 86z"/>
<path style="fill:#0283d9; stroke:none;" d="M554 85L555 86L554 85z"/>
<path style="fill:#03479d; stroke:none;" d="M653 85L654 86L653 85M115 86L116 87L115 86z"/>
<path style="fill:#0283d9; stroke:none;" d="M546.333 86.6667L546.667 87.3333L546.333 86.6667z"/>
<path style="fill:#03479d; stroke:none;" d="M335 87L335 196L393 196L393 169C388.027 169 376.356 171.149 372.603 167.397C369.463 164.256 371 156.062 371 152C371 138.199 372.21 123.782 370.941 110.043C370.424 104.44 359.258 97.9541 354 100.032C348.832 102.075 344.836 107.208 340 110C343.029 99.2472 346.082 92.843 335 87M370 102L371 102L371 87C363.461 90.6677 367.504 96.0044 370 102M492 87L493 88L492 87M528 87L528 88L532 88L528 87M651 87L652 88L651 87M48 88L49 89L48 88z"/>
<path style="fill:#0283d9; stroke:none;" d="M337 88L338 89L337 88M367 88L368 89L367 88z"/>
<path style="fill:#03479d; stroke:none;" d="M527 88L528 89L527 88z"/>
<path style="fill:#0283d9; stroke:none;" d="M532 88L533 89L532 88z"/>
<path style="fill:#03479d; stroke:none;" d="M645 88L647 91L645 88z"/>
<path style="fill:#0283d9; stroke:none;" d="M339 89L340 90L339 89M366 89L367 90L366 89z"/>
<path style="fill:#03479d; stroke:none;" d="M526 89L526 95L527 95L526 89M533 89L534 90L533 89M547 89L544 90L544 91L548 90L547 89M641 89L629 92L629 93L642 92L641 89z"/>
<path style="fill:#030302; stroke:none;" d="M642.667 89.3333L643.333 89.6667L642.667 89.3333z"/>
<path style="fill:#03479d; stroke:none;" d="M644 89L645 90L644 89M33 90L34 91L33 90z"/>
<path style="fill:#0283d9; stroke:none;" d="M341 90L342 91L341 90M365 90L366 91L365 90z"/>
<path style="fill:#03479d; stroke:none;" d="M492 90L492 94L493 94L492 90z"/>
<path style="fill:#0283d9; stroke:none;" d="M527 90L528 91L527 90M535 90L536 91L535 90z"/>
<path style="fill:#03479d; stroke:none;" d="M626 90L627 91L626 90z"/>
<path style="fill:#0283d9; stroke:none;" d="M641 90L642 91L641 90M173 91L174 92L173 91M343 91L344 92L343 91M537 91L538 92L537 91M542 91L539 92L539 93L541 94L542 91z"/>
<path style="fill:#030302; stroke:none;" d="M622 91L623 92L622 91z"/>
<path style="fill:#03479d; stroke:none;" d="M623.667 91.3333L624.333 91.6667L623.667 91.3333z"/>
<path style="fill:#0283d9; stroke:none;" d="M625 91L626 92L625 91z"/>
<path style="fill:#03479d; stroke:none;" d="M627 91L628 92L627 91z"/>
<path style="fill:#0283d9; stroke:none;" d="M628 91L629 92L628 91z"/>
<path style="fill:#030302; stroke:none;" d="M640 91L641 92L640 91z"/>
<path style="fill:#0283d9; stroke:none;" d="M344 92L345 93L344 92M365 92L366 93L365 92z"/>
<path style="fill:#03479d; stroke:none;" d="M540 92L541 93L540 92z"/>
<path style="fill:#0283d9; stroke:none;" d="M526 93L527 94L526 93M557 93L558 94L557 93z"/>
<path style="fill:#030302; stroke:none;" d="M619.667 93.3333L620.333 93.6667L619.667 93.3333z"/>
<path style="fill:#0283d9; stroke:none;" d="M366 94L367 95L366 94M619 94L620 95L619 94M343 95L343 98L344 98L343 95z"/>
<path style="fill:#03479d; stroke:none;" d="M493.333 95.6667L493.667 96.3333L493.333 95.6667M525 95L524 98L525 98L525 95z"/>
<path style="fill:#0283d9; stroke:none;" d="M367 96L368 97L367 96M525 96L526 97L525 96z"/>
<path style="fill:#03479d; stroke:none;" d="M646 96L647 97L646 96M492 97L493 98L492 97M559 97L561 102L562 102L559 97M32 98L33 99L32 98M47 98L48 99L47 98z"/>
<path style="fill:#b41320; stroke:none;" d="M114.333 98.6667L114.667 99.3333L114.333 98.6667z"/>
<path style="fill:#0283d9; stroke:none;" d="M355.667 98.3333L356.333 98.6667L355.667 98.3333M368 98L369 99L368 98z"/>
<path style="fill:#03479d; stroke:none;" d="M525 98L526 103C528.301 100.973 527.26 99.6172 525 98z"/>
<path style="fill:#0283d9; stroke:none;" d="M526 98L527 99L526 98M623 98L624 99L623 98M645 98L646 99L645 98M358 99L359 100L358 99M491 99L492 100L491 99z"/>
<path style="fill:#03479d; stroke:none;" d="M47 100L48 101L47 100z"/>
<path style="fill:#0283d9; stroke:none;" d="M342.333 100.667L342.667 101.333L342.333 100.667M352 100L353 101L352 100M360 100L361 101L360 100M369 100L370 101L369 100M560 100L561 101L560 100z"/>
<path style="fill:#03479d; stroke:none;" d="M644 100L645 101L644 100z"/>
<path style="fill:#0283d9; stroke:none;" d="M351 101L352 102L351 101M361 101L362 102L361 101z"/>
<path style="fill:#03479d; stroke:none;" d="M490 101L490 107L491 107L490 101z"/>
<path style="fill:#0283d9; stroke:none;" d="M562 101L564 103L562 101z"/>
<path style="fill:#03479d; stroke:none;" d="M599 101L598 103L599 101z"/>
<path style="fill:#0283d9; stroke:none;" d="M644 101L645 102L644 101M350 102L351 103L350 102M363 102L364 103L363 102z"/>
<path style="fill:#030302; stroke:none;" d="M562.333 102.667L562.667 103.333L562.333 102.667M599 102L599 104L601 104L601 102L599 102z"/>
<path style="fill:#03479d; stroke:none;" d="M644 102L645 103L644 102z"/>
<path style="fill:#0283d9; stroke:none;" d="M365 103L366 104L365 103z"/>
<path style="fill:#03479d; stroke:none;" d="M520 103L519 106L520 106L520 103z"/>
<path style="fill:#b41320; stroke:none;" d="M521 103L522 104L521 103z"/>
<path style="fill:#03479d; stroke:none;" d="M525 103L522 104L522 105L524 106L525 103M560 103L562 105L562 103L560 103M601 103L602 104L601 103z"/>
<path style="fill:#0283d9; stroke:none;" d="M607 103L608 104L607 103M609 103L611 105L609 103z"/>
<path style="fill:#03479d; stroke:none;" d="M643 103L639 109L644 110L643 103z"/>
<path style="fill:#b41320; stroke:none;" d="M69 104L70 105L69 104z"/>
<path style="fill:#0283d9; stroke:none;" d="M341.333 104.667L341.667 105.333L341.333 104.667M367 104L368 105L367 104M520.667 104.333L521.333 104.667L520.667 104.333M523 104L524 105L523 104M525 104L526 105L525 104z"/>
<path style="fill:#03479d; stroke:none;" d="M558 104L557 106L558 104z"/>
<path style="fill:#030302; stroke:none;" d="M558 105L562 107L561 104L558 105z"/>
<path style="fill:#03479d; stroke:none;" d="M600.333 104.667L600.667 105.333L600.333 104.667M602 104L603 105L602 104z"/>
<path style="fill:#0283d9; stroke:none;" d="M603.667 104.333L604.333 104.667L603.667 104.333z"/>
<path style="fill:#03479d; stroke:none;" d="M605 104L606 105L605 104z"/>
<path style="fill:#0283d9; stroke:none;" d="M641 104L642 105L641 104z"/>
<path style="fill:#b41320; stroke:none;" d="M32 105L33 106L32 105z"/>
<path style="fill:#0283d9; stroke:none;" d="M346 105L347 106L346 105M369 105L370 106L369 105M524 105L525 106L524 105M561 105L562 106L561 105M612 105L614 107L612 105M622 105L623 106L622 105z"/>
<path style="fill:#03479d; stroke:none;" d="M32 106L33 107L32 106z"/>
<path style="fill:#b41320; stroke:none;" d="M69 106L70 107L69 106z"/>
<path style="fill:#0283d9; stroke:none;" d="M345 106L346 107L345 106z"/>
<path style="fill:#03479d; stroke:none;" d="M520 106L522 110L523 110L520 106z"/>
<path style="fill:#0283d9; stroke:none;" d="M521 106L522 107L521 106z"/>
<path style="fill:#03479d; stroke:none;" d="M560 106L561 107L560 106M562 106L562 107L567 114L567 113L564 112L566 107L562 106M614 106L615 107L614 106z"/>
<path style="fill:#0283d9; stroke:none;" d="M615 106L616 107L615 106z"/>
<path style="fill:#03479d; stroke:none;" d="M616 106L617 107L616 106M46 107L47 108L46 107z"/>
<path style="fill:#0283d9; stroke:none;" d="M344 107L345 108L344 107M618 107L619 108L618 107M340 108L340 110L342 110L340 108M521 108L522 109L521 108z"/>
<path style="fill:#030302; stroke:none;" d="M565 108L566 109L565 108z"/>
<path style="fill:#03479d; stroke:none;" d="M600 108L599 113L600 113L600 108z"/>
<path style="fill:#0283d9; stroke:none;" d="M621 108L622 109L621 108z"/>
<path style="fill:#03479d; stroke:none;" d="M46 109L47 110L46 109M489 109L490 110L489 109M493.333 110.667L493.667 111.333L493.333 110.667M523 110L524 111L523 110z"/>
<path style="fill:#030302; stroke:none;" d="M562 110L563 111L562 110z"/>
<path style="fill:#03479d; stroke:none;" d="M622.333 110.667L622.667 111.333L622.333 110.667z"/>
<path style="fill:#0283d9; stroke:none;" d="M643 110L644 111L643 110M494 111L495 112L494 111z"/>
<path style="fill:#03479d; stroke:none;" d="M504 111L503 114L504 111z"/>
<path style="fill:#0283d9; stroke:none;" d="M505 111L506 112L505 111z"/>
<path style="fill:#03479d; stroke:none;" d="M506 111L507 114L508 114L506 111z"/>
<path style="fill:#0283d9; stroke:none;" d="M507 111L508 112L507 111z"/>
<path style="fill:#03479d; stroke:none;" d="M524 111L523 114L524 111M643.333 111.667L643.667 112.333L643.333 111.667z"/>
<path style="fill:#0283d9; stroke:none;" d="M523 112L524 113L523 112M622 112L623 113L622 112z"/>
<path style="fill:#03479d; stroke:none;" d="M485 113L486 114L485 113z"/>
<path style="fill:#0283d9; stroke:none;" d="M598 113L599 114L598 113z"/>
<path style="fill:#03479d; stroke:none;" d="M615 113L614 117L615 117L617 114L615 113z"/>
<path style="fill:#0283d9; stroke:none;" d="M617 113L618 114L617 113z"/>
<path style="fill:#03479d; stroke:none;" d="M618 113L619 114L618 113M621 113L620 115L621 113M484 114L485 115L484 114z"/>
<path style="fill:#030302; stroke:none;" d="M503 114L503 118L504 118L503 114z"/>
<path style="fill:#0283d9; stroke:none;" d="M504 114L505 115L504 114z"/>
<path style="fill:#03479d; stroke:none;" d="M508 114L509 115L508 114M522 114L522 117L523 117L522 114z"/>
<path style="fill:#030302; stroke:none;" d="M567 114L568 115L567 114z"/>
<path style="fill:#03479d; stroke:none;" d="M598 114L598 117L599 117L598 114z"/>
<path style="fill:#0283d9; stroke:none;" d="M621 114L622 115L621 114z"/>
<path style="fill:#03479d; stroke:none;" d="M481 115L482 116L481 115z"/>
<path style="fill:#0283d9; stroke:none;" d="M509.333 115.667L509.667 116.333L509.333 115.667z"/>
<path style="fill:#030302; stroke:none;" d="M515 115L516 116L515 115z"/>
<path style="fill:#0283d9; stroke:none;" d="M516 115L517 116L516 115z"/>
<path style="fill:#03479d; stroke:none;" d="M568 115L576 123L556 125L556 126L577 123C575.624 118.014 572.601 116.794 568 115z"/>
<path style="fill:#0283d9; stroke:none;" d="M569 115L570 116L569 115z"/>
<path style="fill:#03479d; stroke:none;" d="M495 118L499 117L495 118M515 116L513 120L517 116L515 116M520 116L521 117L520 116z"/>
<path style="fill:#030302; stroke:none;" d="M521 116L522 117L521 116z"/>
<path style="fill:#03479d; stroke:none;" d="M499.667 117.333L500.333 117.667L499.667 117.333z"/>
<path style="fill:#0283d9; stroke:none;" d="M501.333 117.667L501.667 118.333L501.333 117.667z"/>
<path style="fill:#03479d; stroke:none;" d="M502 117L503 118L502 117M504 117L505 118L504 117M510 117L511 118L510 117M517 117L518 118L517 117z"/>
<path style="fill:#030302; stroke:none;" d="M518 117L519 118L518 117z"/>
<path style="fill:#03479d; stroke:none;" d="M519 117L520 118L519 117z"/>
<path style="fill:#030302; stroke:none;" d="M574 117L575 118L574 117z"/>
<path style="fill:#0283d9; stroke:none;" d="M614.333 117.667L614.667 118.333L614.333 117.667z"/>
<path style="fill:#03479d; stroke:none;" d="M478 118L479 119L478 118M494 118L495 119L494 118z"/>
<path style="fill:#0283d9; stroke:none;" d="M511 118L512 119L511 118z"/>
<path style="fill:#030302; stroke:none;" d="M595 118L596 119L595 118z"/>
<path style="fill:#03479d; stroke:none;" d="M596 118L597 119L596 118z"/>
<path style="fill:#0283d9; stroke:none;" d="M597 118L598 119L597 118z"/>
<path style="fill:#03479d; stroke:none;" d="M46 119L47 120L46 119M491 119L491 120L494 120L491 119M511 119L513 122L511 119M595 119L596 120L595 119z"/>
<path style="fill:#0283d9; stroke:none;" d="M615 119L616 120L615 119z"/>
<path style="fill:#03479d; stroke:none;" d="M641 119L642 120L641 119z"/>
<path style="fill:#0283d9; stroke:none;" d="M477 120L478 121L477 120M488 120L489 121L488 120z"/>
<path style="fill:#03479d; stroke:none;" d="M489 120L490 121L489 120z"/>
<path style="fill:#0283d9; stroke:none;" d="M490 120L491 121L490 120z"/>
<path style="fill:#030302; stroke:none;" d="M512 120L513 121L512 120z"/>
<path style="fill:#0283d9; stroke:none;" d="M513 120L514 121L513 120M595 120L596 121L595 120z"/>
<path style="fill:#03479d; stroke:none;" d="M476 121L477 122L476 121M486.667 121.333L487.333 121.667L486.667 121.333z"/>
<path style="fill:#0283d9; stroke:none;" d="M575.333 121.667L575.667 122.333L575.333 121.667z"/>
<path style="fill:#03479d; stroke:none;" d="M595 121L596 122L595 121z"/>
<path style="fill:#0283d9; stroke:none;" d="M616 121L619 124L616 121z"/>
<path style="fill:#03479d; stroke:none;" d="M485 122L486 123L485 122M513 122L513 125L514 125L513 122z"/>
<path style="fill:#030302; stroke:none;" d="M516 122L517 123L516 122z"/>
<path style="fill:#0283d9; stroke:none;" d="M517 122L518 123L517 122M594.667 122.333L595.333 122.667L594.667 122.333z"/>
<path style="fill:#03479d; stroke:none;" d="M636.667 122.333L637.333 122.667L636.667 122.333M115 123L116 124L115 123M475 123L476 124L475 123M484 123L485 124L484 123z"/>
<path style="fill:#0283d9; stroke:none;" d="M495 123L496 126L499 123L495 123z"/>
<path style="fill:#03479d; stroke:none;" d="M496 123L496 125L498 123L496 123z"/>
<path style="fill:#0283d9; stroke:none;" d="M514 123L515 124L514 123z"/>
<path style="fill:#03479d; stroke:none;" d="M515 125L518 127C518.598 124.414 517.022 122.858 515 125M546 125L545 130L545 131L549 131L548 126L553 124L555 125L556 125L546 125z"/>
<path style="fill:#0283d9; stroke:none;" d="M567 123L568 124L567 123M572 123L573 124L572 123z"/>
<path style="fill:#030302; stroke:none;" d="M576 123L577 124L576 123z"/>
<path style="fill:#03479d; stroke:none;" d="M593.667 123.333L594.333 123.667L593.667 123.333z"/>
<path style="fill:#0283d9; stroke:none;" d="M632 123L631 125L632 123z"/>
<path style="fill:#03479d; stroke:none;" d="M633 123L633 124L636 124L633 123z"/>
<path style="fill:#0283d9; stroke:none;" d="M478 124L479 125L478 124z"/>
<path style="fill:#030302; stroke:none;" d="M479 124L480 125L479 124z"/>
<path style="fill:#03479d; stroke:none;" d="M476 127L476 128L480 128L483 125L476 127z"/>
<path style="fill:#0283d9; stroke:none;" d="M483 124L484 125L483 124z"/>
<path style="fill:#030302; stroke:none;" d="M514 124L515 125L514 124z"/>
<path style="fill:#0283d9; stroke:none;" d="M517 124L518 125L517 124z"/>
<path style="fill:#030302; stroke:none;" d="M553 124L554 125L553 124z"/>
<path style="fill:#03479d; stroke:none;" d="M577 124L577 125L585 127L577 124z"/>
<path style="fill:#0283d9; stroke:none;" d="M591 124L592 125L591 124z"/>
<path style="fill:#03479d; stroke:none;" d="M592 124L593 125L592 124M619 124L621 127L619 124M628 124L622 127L622 128L632 126L628 124z"/>
<path style="fill:#0283d9; stroke:none;" d="M629 124L630 125L629 124z"/>
<path style="fill:#03479d; stroke:none;" d="M632 124L633 125L632 124M636 124L637 125L636 124z"/>
<path style="fill:#0283d9; stroke:none;" d="M480 125L481 126L480 125z"/>
<path style="fill:#030302; stroke:none;" d="M547 125L548 126L547 125M577 125L578 126L577 125z"/>
<path style="fill:#0283d9; stroke:none;" d="M589 125L590 126L589 125z"/>
<path style="fill:#03479d; stroke:none;" d="M635.333 125.667L635.667 126.333L635.333 125.667M474 126L475 127L474 126z"/>
<path style="fill:#0283d9; stroke:none;" d="M475 126L476 127L475 126z"/>
<path style="fill:#030302; stroke:none;" d="M519 126L520 127L519 126z"/>
<path style="fill:#03479d; stroke:none;" d="M520.667 126.333L521.333 126.667L520.667 126.333z"/>
<path style="fill:#030302; stroke:none;" d="M522 126L523 127L522 126z"/>
<path style="fill:#0283d9; stroke:none;" d="M577 126L578 127L577 126M628 126L629 127L628 126M70 127L71 128L70 127z"/>
<path style="fill:#03479d; stroke:none;" d="M497 127L498 131L499 131L497 127z"/>
<path style="fill:#0283d9; stroke:none;" d="M498 127L499 128L498 127z"/>
<path style="fill:#03479d; stroke:none;" d="M523 127L523 128L528 128L523 127z"/>
<path style="fill:#030302; stroke:none;" d="M528 127L529 128L528 127z"/>
<path style="fill:#03479d; stroke:none;" d="M529 127L531 130L529 127z"/>
<path style="fill:#0283d9; stroke:none;" d="M562 127L563 128L562 127M585 127L586 128L585 127z"/>
<path style="fill:#03479d; stroke:none;" d="M588 127L589 128L588 127z"/>
<path style="fill:#0283d9; stroke:none;" d="M618 127L619 128L618 127M621 127L622 128L621 127M627 127L628 128L627 127z"/>
<path style="fill:#03479d; stroke:none;" d="M634 127L635 128L634 127z"/>
<path style="fill:#0283d9; stroke:none;" d="M497 128L498 129L497 128M530 128L531 129L530 128z"/>
<path style="fill:#03479d; stroke:none;" d="M586 128L587 129L586 128z"/>
<path style="fill:#0283d9; stroke:none;" d="M587 128L588 129L587 128M616 128L614 131L616 128M548 129L549 130L548 129z"/>
<path style="fill:#03479d; stroke:none;" d="M610 129L611 130L610 129M531 130L532 134L537 134L537 133L531 130z"/>
<path style="fill:#030302; stroke:none;" d="M547 130L547 132L549 132L547 130z"/>
<path style="fill:#0283d9; stroke:none;" d="M609 130L610 131L609 130z"/>
<path style="fill:#03479d; stroke:none;" d="M612.667 130.333L613.333 130.667L612.667 130.333M634 130L635 131L634 130z"/>
<path style="fill:#0283d9; stroke:none;" d="M497 131L498 132L497 131M531 131L532 132L531 131M537 131L538 132L537 131z"/>
<path style="fill:#030302; stroke:none;" d="M538 131L539 132L538 131z"/>
<path style="fill:#03479d; stroke:none;" d="M539 131L540 132L539 131M544 131L545 132L544 131z"/>
<path style="fill:#0283d9; stroke:none;" d="M580 131L581 132L580 131z"/>
<path style="fill:#03479d; stroke:none;" d="M581 131L582 132L581 131z"/>
<path style="fill:#0283d9; stroke:none;" d="M582 131L582 132L585 133L582 131z"/>
<path style="fill:#03479d; stroke:none;" d="M584 131L585 132L584 131M32 132L33 133L32 132M470 132L471 133L470 132z"/>
<path style="fill:#030302; stroke:none;" d="M532 132L533 133L532 132z"/>
<path style="fill:#03479d; stroke:none;" d="M537.667 132.333L538.333 132.667L537.667 132.333M540 132L540 133L544 132L540 132z"/>
<path style="fill:#0283d9; stroke:none;" d="M547.667 132.333L548.333 132.667L547.667 132.333M608.333 132.667L608.667 133.333L608.333 132.667M471.333 134.667L471.667 135.333L471.333 134.667z"/>
<path style="fill:#03479d; stroke:none;" d="M531.333 134.667L531.667 135.333L531.333 134.667z"/>
<path style="fill:#0283d9; stroke:none;" d="M544 134L545 135L544 134M545 135L546 136L545 135z"/>
<path style="fill:#03479d; stroke:none;" d="M634 135L635 136L634 135M530 136L531 137L530 136z"/>
<path style="fill:#0283d9; stroke:none;" d="M546 136L547 137L546 136M609 136L610 137L609 136z"/>
<path style="fill:#03479d; stroke:none;" d="M635 136L636 137L635 136M47 137L48 138L47 137z"/>
<path style="fill:#0283d9; stroke:none;" d="M530 137L531 138L530 137z"/>
<path style="fill:#03479d; stroke:none;" d="M529.333 138.667L529.667 139.333L529.333 138.667M636 138L637 139L636 138M470 139L470 143L471 143L470 139z"/>
<path style="fill:#0283d9; stroke:none;" d="M611 139L611 143L612 143L611 139z"/>
<path style="fill:#03479d; stroke:none;" d="M101 140L102 141L101 140M528.333 140.667L528.667 141.333L528.333 140.667z"/>
<path style="fill:#0283d9; stroke:none;" d="M546 140L546 143L547 143L546 140z"/>
<path style="fill:#03479d; stroke:none;" d="M47 141L48 142L47 141M638 141L638 144L639 144L638 141z"/>
<path style="fill:#0283d9; stroke:none;" d="M527.667 142.333L528.333 142.667L527.667 142.333z"/>
<path style="fill:#b41320; stroke:none;" d="M117 143L118 144L117 143z"/>
<path style="fill:#03479d; stroke:none;" d="M485 143L485 144L488 144L485 143M527 143L527 148L528 148L527 143M611 143L611 146L612 146L611 143M470 144L471 145L470 144M484 144L483 152L484 152L484 144M488 144L488 145L491 145L488 144z"/>
<path style="fill:#0283d9; stroke:none;" d="M637 144L638 145L637 144z"/>
<path style="fill:#03479d; stroke:none;" d="M491 145L491 146L497 146L491 145z"/>
<path style="fill:#0283d9; stroke:none;" d="M544.333 145.667L544.667 146.333L544.333 145.667z"/>
<path style="fill:#03479d; stroke:none;" d="M637 145L637 156L638 156L637 145M641 145L642 146L641 145M469 146L470 147L469 146M497 146L497 147L503 148L503 147L497 146z"/>
<path style="fill:#0283d9; stroke:none;" d="M499 146L500 147L499 146M611 146L611 149L612 149L611 146M469 147L470 148L469 147M485 147L486 148L485 147M528 147L527 150L528 147z"/>
<path style="fill:#03479d; stroke:none;" d="M544 147L545 148L544 147M503 148L503 149L506 149L503 148z"/>
<path style="fill:#0283d9; stroke:none;" d="M544.667 148.333L545.333 148.667L544.667 148.333z"/>
<path style="fill:#03479d; stroke:none;" d="M641 148L645.858 182.996L660 209L654 210L654 212C658.329 213.894 661.414 215.877 666 214C664.118 206.708 656.221 183.876 648 184C646.471 171.408 647.728 159.892 641 148M34 149L35 150L34 149z"/>
<path style="fill:#f5e322; stroke:none;" d="M48 149L49 150L48 149z"/>
<path style="fill:#03479d; stroke:none;" d="M468 149L469 150L468 149M506.667 149.333L507.333 149.667L506.667 149.333M546.333 149.667L546.667 150.333L546.333 149.667M611 149L612 150L611 149z"/>
<path style="fill:#b41320; stroke:none;" d="M34 150L35 151L34 150M48 150L48 153L49 153L48 150z"/>
<path style="fill:#0283d9; stroke:none;" d="M484 150L485 151L484 150z"/>
<path style="fill:#03479d; stroke:none;" d="M508.667 150.333L509.333 150.667L508.667 150.333M528 150L526 156C528.554 154.35 529.098 152.88 528 150z"/>
<path style="fill:#0283d9; stroke:none;" d="M612 150L613 151L612 150z"/>
<path style="fill:#03479d; stroke:none;" d="M510.667 151.333L511.333 151.667L510.667 151.333M545 151L546 152L545 151z"/>
<path style="fill:#0283d9; stroke:none;" d="M614 151L614 152L620 153L614 151z"/>
<path style="fill:#b41320; stroke:none;" d="M34 152L35 153L34 152z"/>
<path style="fill:#03479d; stroke:none;" d="M467.667 152.333L468.333 152.667L467.667 152.333M481.667 152.333L482.333 152.667L481.667 152.333M512.667 152.333L513.333 152.667L512.667 152.333z"/>
<path style="fill:#0283d9; stroke:none;" d="M545 152L546 153L545 152z"/>
<path style="fill:#03479d; stroke:none;" d="M620 152L621 153L620 152M119 153L120 154L119 153M464.667 153.333L465.333 153.667L464.667 153.333M469 153L469 154L472 154L469 153z"/>
<path style="fill:#0283d9; stroke:none;" d="M478 153L479 154L478 153z"/>
<path style="fill:#03479d; stroke:none;" d="M479.667 153.333L480.333 153.667L479.667 153.333M514.667 153.333L515.333 153.667L514.667 153.333z"/>
<path style="fill:#0283d9; stroke:none;" d="M548 153L549 154L548 153M621 153L622 154L621 153z"/>
<path style="fill:#03479d; stroke:none;" d="M462 154L463 155L462 154M472 154L472 155C475.624 158.59 473.404 160.691 472 165L466 165L466 166L473 167C473.38 161.746 476.829 158.603 482 160L476 157L472 154M477.667 154.333L478.333 154.667L477.667 154.333M516 154L516 155L520 156L520 155L516 154z"/>
<path style="fill:#0283d9; stroke:none;" d="M518 154L519 155L518 154z"/>
<path style="fill:#03479d; stroke:none;" d="M551 154L552 155L551 154z"/>
<path style="fill:#0283d9; stroke:none;" d="M552.333 154.667L552.667 155.333L552.333 154.667M623 154L624 155L623 154z"/>
<path style="fill:#03479d; stroke:none;" d="M624.667 154.333L625.333 154.667L624.667 154.333M49 155L50 156L49 155z"/>
<path style="fill:#030302; stroke:none;" d="M553 155L554 156L553 155z"/>
<path style="fill:#0283d9; stroke:none;" d="M554 155L555 156L554 155M627 155L628 156L627 155M461 156L462 157L461 156z"/>
<path style="fill:#030302; stroke:none;" d="M474 156L475 157L474 156z"/>
<path style="fill:#0283d9; stroke:none;" d="M519 156L520 157L519 156z"/>
<path style="fill:#030302; stroke:none;" d="M520 156L521 157L520 156z"/>
<path style="fill:#03479d; stroke:none;" d="M520 159L524 158L520 159M524.667 156.333L525.333 156.667L524.667 156.333M553.667 156.333L554.333 156.667L553.667 156.333M636 156L637 157L636 156z"/>
<path style="fill:#b41320; stroke:none;" d="M74 157L75 158L74 157z"/>
<path style="fill:#03479d; stroke:none;" d="M444 157L445 158L444 157M447.333 157.667L447.667 158.333L447.333 157.667M458 157L459 158L458 157M482 160L482 161L489 158L482 160z"/>
<path style="fill:#0283d9; stroke:none;" d="M629 157L630 158L629 157z"/>
<path style="fill:#03479d; stroke:none;" d="M638 157C637.192 161.17 635.078 166.14 639 169L638 180L640 180L642 184L641 187L644 188L648 192L656 207C656.102 196.46 646.871 191.669 643.228 182.999C639.897 175.072 641.327 164.925 638 157z"/>
<path style="fill:#b41320; stroke:none;" d="M120 158L121 159L120 158z"/>
<path style="fill:#03479d; stroke:none;" d="M439.667 158.333L440.333 158.667L439.667 158.333z"/>
<path style="fill:#0283d9; stroke:none;" d="M442 158L443 159L442 158z"/>
<path style="fill:#03479d; stroke:none;" d="M456 158L457 159L456 158z"/>
<path style="fill:#0283d9; stroke:none;" d="M458 158L459 159L458 158z"/>
<path style="fill:#030302; stroke:none;" d="M475 158L476 159L475 158M487.667 158.333L488.333 158.667L487.667 158.333z"/>
<path style="fill:#0283d9; stroke:none;" d="M552.333 158.667L552.667 159.333L552.333 158.667M557.667 158.333L558.333 158.667L557.667 158.333z"/>
<path style="fill:#03479d; stroke:none;" d="M438.333 159.667L438.667 160.333L438.333 159.667z"/>
<path style="fill:#0283d9; stroke:none;" d="M446 159L447 160L446 159z"/>
<path style="fill:#03479d; stroke:none;" d="M455 159L456 160L455 159z"/>
<path style="fill:#0283d9; stroke:none;" d="M459 159L460 160L459 159z"/>
<path style="fill:#03479d; stroke:none;" d="M461.667 159.333L462.333 159.667L461.667 159.333z"/>
<path style="fill:#0283d9; stroke:none;" d="M463 159L464 160L463 159M474 159L475 160L474 159M484 159L485 160L484 159z"/>
<path style="fill:#03479d; stroke:none;" d="M488 159L487 168L488 168L488 159M521 159L522 160L521 159z"/>
<path style="fill:#0283d9; stroke:none;" d="M630 159L631 160L630 159z"/>
<path style="fill:#b41320; stroke:none;" d="M50.3333 160.667L50.6667 161.333L50.3333 160.667z"/>
<path style="fill:#03479d; stroke:none;" d="M454 160L455 161L454 160M460 160L461 161L460 160M464 160L466 162L464 160z"/>
<path style="fill:#0283d9; stroke:none;" d="M465 160L466 161L465 160z"/>
<path style="fill:#03479d; stroke:none;" d="M520 160L520 166L521 166L520 160M551 160L552 161L551 160z"/>
<path style="fill:#0283d9; stroke:none;" d="M430 161L431 162L430 161M466 161L467 162L466 161M474 161L475 162L474 161M550 161L551 162L550 161M631 161L632 162L631 161z"/>
<path style="fill:#03479d; stroke:none;" d="M121 162L122 163L121 162M427 162L428 163L427 162z"/>
<path style="fill:#0283d9; stroke:none;" d="M437 162L438 163L437 162M453 162L454 163L453 162M465 162L466 163L465 162M549 162L550 163L549 162M559 162L560 163L559 162z"/>
<path style="fill:#03479d; stroke:none;" d="M105 163L106 164L105 163M426 163L427 164L426 163M435 163L436 164L435 163M452 163L453 164L452 163M465.333 163.667L465.667 164.333L465.333 163.667z"/>
<path style="fill:#0283d9; stroke:none;" d="M467 163L468 164L467 163M473 163L474 164L473 163M548 163L549 164L548 163z"/>
<path style="fill:#03479d; stroke:none;" d="M583 163L584 164L583 163z"/>
<path style="fill:#0283d9; stroke:none;" d="M584.333 163.667L584.667 164.333L584.333 163.667z"/>
<path style="fill:#b41320; stroke:none;" d="M121 164L122 165L121 164z"/>
<path style="fill:#03479d; stroke:none;" d="M425 164L426 165L425 164M450 164L451 165L450 164z"/>
<path style="fill:#0283d9; stroke:none;" d="M464 164L465 165L464 164M547 164L548 165L547 164M582 164L583 165L582 164M600 164L600 165L607 166L607 165L600 164z"/>
<path style="fill:#03479d; stroke:none;" d="M607 165L607 166L635 166L607 165z"/>
<path style="fill:#0283d9; stroke:none;" d="M424 165L425 166L424 165z"/>
<path style="fill:#030302; stroke:none;" d="M467 165L468 166L467 165M472 165L473 166L472 165z"/>
<path style="fill:#0283d9; stroke:none;" d="M557 165L558 166L557 165z"/>
<path style="fill:#03479d; stroke:none;" d="M599 165L599 173L600 173L602 166L599 165z"/>
<path style="fill:#030302; stroke:none;" d="M632 165L633 166L632 165z"/>
<path style="fill:#b41320; stroke:none;" d="M635 165L636 166L635 165z"/>
<path style="fill:#030302; stroke:none;" d="M637.333 165.667L637.667 166.333L637.333 165.667z"/>
<path style="fill:#03479d; stroke:none;" d="M122 166L123 167L122 166z"/>
<path style="fill:#0283d9; stroke:none;" d="M423 166L424 167L423 166M471 166L472 167L471 166M520.667 166.333L521.333 166.667L520.667 166.333M542 170L543 170L547 167L542 170z"/>
<path style="fill:#03479d; stroke:none;" d="M547 166L546 168L548 168L547 166M51 167L52 168L51 167z"/>
<path style="fill:#0283d9; stroke:none;" d="M472 167L473 168L472 167z"/>
<path style="fill:#03479d; stroke:none;" d="M521 167L521 171L522 171L521 167z"/>
<path style="fill:#0283d9; stroke:none;" d="M579 167L580 168L579 167z"/>
<path style="fill:#f5e322; stroke:none;" d="M83 168L84 169L83 168z"/>
<path style="fill:#0283d9; stroke:none;" d="M423.333 168.667L423.667 169.333L423.333 168.667M471 168L472 169L471 168z"/>
<path style="fill:#03479d; stroke:none;" d="M486 168C486.706 177.812 497.458 178.542 505 184L488.968 174.117L486 168z"/>
<path style="fill:#0283d9; stroke:none;" d="M561 168L562 169L561 168z"/>
<path style="fill:#03479d; stroke:none;" d="M106 169L107 170L106 169M471 169L472 170L471 169z"/>
<path style="fill:#0283d9; stroke:none;" d="M566 169L567 170L566 169M579 169L577 172L579 169z"/>
<path style="fill:#030302; stroke:none;" d="M638 169L639 170L638 169z"/>
<path style="fill:#03479d; stroke:none;" d="M107 170L108 171L107 170M470 170L471 171L470 170z"/>
<path style="fill:#0283d9; stroke:none;" d="M486 170L487 171L486 170z"/>
<path style="fill:#03479d; stroke:none;" d="M567 170L568 171L567 170M572.667 170.333L573.333 170.667L572.667 170.333z"/>
<path style="fill:#0283d9; stroke:none;" d="M574 170L575 171L574 170M487 171L488 172L487 171z"/>
<path style="fill:#03479d; stroke:none;" d="M520.333 171.667L520.667 172.333L520.333 171.667z"/>
<path style="fill:#0283d9; stroke:none;" d="M567.333 171.667L567.667 172.333L567.333 171.667M571.333 171.667L571.667 172.333L571.333 171.667M469 172L470 173L469 172M543 172L545 174L543 172M639 172L640 173L639 172z"/>
<path style="fill:#03479d; stroke:none;" d="M469 173L469 176L470 176L469 173z"/>
<path style="fill:#0283d9; stroke:none;" d="M521 173L522 174L521 173z"/>
<path style="fill:#03479d; stroke:none;" d="M560 181L560 180C558.372 175.952 565.005 175.28 568 174C564.214 173.515 553.685 176.745 560 181M598 173L596 182L598 182L598 183L596 183L596 184C599.945 181.634 599.833 176.98 598 173M521.333 174.667L521.667 175.333L521.333 174.667z"/>
<path style="fill:#030302; stroke:none;" d="M566 174L567 175L566 174z"/>
<path style="fill:#0283d9; stroke:none;" d="M567 174L568 175L567 174z"/>
<path style="fill:#03479d; stroke:none;" d="M572 174L567 175L567 176C574.072 178.169 568.001 182.335 567 187L563 186L563 187C569.325 187.959 574.35 179.667 572 174z"/>
<path style="fill:#030302; stroke:none;" d="M598 174L599 175L598 174M640 174L641 175L640 174z"/>
<path style="fill:#f5e322; stroke:none;" d="M53 175L54 176L53 175z"/>
<path style="fill:#03479d; stroke:none;" d="M420 175L421 176L420 175z"/>
<path style="fill:#0283d9; stroke:none;" d="M421 175L422 176L421 175M489 175L490 176L489 175M558 175L559 176L558 175z"/>
<path style="fill:#f5e322; stroke:none;" d="M558 177L566 187C572.331 177.62 570.34 173.106 558 177z"/>
<path style="fill:#0283d9; stroke:none;" d="M599 175L600 176L599 175z"/>
<path style="fill:#b41320; stroke:none;" d="M53 176L54 177L53 176M124.333 176.667L124.667 177.333L124.333 176.667z"/>
<path style="fill:#0283d9; stroke:none;" d="M434 176L435 177L434 176z"/>
<path style="fill:#03479d; stroke:none;" d="M435 176L436 177L435 176z"/>
<path style="fill:#0283d9; stroke:none;" d="M436 176L437 177L436 176M441.667 176.333L442.333 176.667L441.667 176.333z"/>
<path style="fill:#03479d; stroke:none;" d="M443 176L444 177L443 176z"/>
<path style="fill:#0283d9; stroke:none;" d="M444 176L445 177L444 176M453 176L454 177L453 176z"/>
<path style="fill:#03479d; stroke:none;" d="M454 176L454 177L469 177L454 176M472 176L472 177L475 177L472 176z"/>
<path style="fill:#0283d9; stroke:none;" d="M490 176L491 177L490 176z"/>
<path style="fill:#03479d; stroke:none;" d="M520 176L521 177L520 176z"/>
<path style="fill:#0283d9; stroke:none;" d="M545 176L546 177L545 176z"/>
<path style="fill:#03479d; stroke:none;" d="M53 177L54 178L53 177M420 177L421 178L420 177M427 177L428 178L427 177M448.667 177.333L449.333 177.667L448.667 177.333z"/>
<path style="fill:#030302; stroke:none;" d="M494 177L495 178L494 177z"/>
<path style="fill:#03479d; stroke:none;" d="M519 177L520 178L519 177z"/>
<path style="fill:#0283d9; stroke:none;" d="M543 177L544 178L543 177z"/>
<path style="fill:#03479d; stroke:none;" d="M544 177L545 178L544 177z"/>
<path style="fill:#030302; stroke:none;" d="M639 177L640 178L639 177z"/>
<path style="fill:#03479d; stroke:none;" d="M124 178L125 179L124 178M422 178L422 179L426 179L422 178z"/>
<path style="fill:#0283d9; stroke:none;" d="M499 178L500 179L499 178z"/>
<path style="fill:#03479d; stroke:none;" d="M518 178L519 179L518 178z"/>
<path style="fill:#030302; stroke:none;" d="M638 178L639 179L638 178z"/>
<path style="fill:#03479d; stroke:none;" d="M476 179L477 180L476 179M517 179L518 180L517 179z"/>
<path style="fill:#0283d9; stroke:none;" d="M558 179L559 180L558 179M573 179L574 180L573 179z"/>
<path style="fill:#b41320; stroke:none;" d="M40 180L41 181L40 180z"/>
<path style="fill:#03479d; stroke:none;" d="M54 180L55 181L54 180M477 180L477 185L478 185L477 180M516 180L517 181L516 180M594 180L589 182L589 183L595 181L594 180z"/>
<path style="fill:#030302; stroke:none;" d="M595 180L596 181L595 180M639 180L640 181L639 180z"/>
<path style="fill:#b41320; stroke:none;" d="M79 181L80 182L79 181z"/>
<path style="fill:#03479d; stroke:none;" d="M506 182L506 183C510.635 183.027 513.504 185.206 516 189L517 189L516 181L515 181L512 184C511.536 180.91 508.723 181.504 506 182z"/>
<path style="fill:#030302; stroke:none;" d="M559 181L563 186L563 185L559 181z"/>
<path style="fill:#0283d9; stroke:none;" d="M572 181L573 182L572 181M591 181L592 182L591 181z"/>
<path style="fill:#f5e322; stroke:none;" d="M589 183L591 189L572 192L571 204L567 205L574.596 219.105L573 229C579.444 230.958 585.025 231.346 591 228L590 223C593.034 223.865 597.439 226.623 600.606 225.353C603.907 224.03 604.715 218.895 606.325 216.129C609.491 210.688 614.769 206.642 621 206L617 199C611.227 199.244 603.773 201.205 602 194C597.234 190.755 595.489 187.721 597 182L589 183z"/>
<path style="fill:#b41320; stroke:none;" d="M110.333 182.667L110.667 183.333L110.333 182.667z"/>
<path style="fill:#0283d9; stroke:none;" d="M508 182L509 183L508 182M541 182L541 186L542 186L541 182M571 182L572 183L571 182z"/>
<path style="fill:#030302; stroke:none;" d="M588.333 182.667L588.667 183.333L588.333 182.667M597 182L598 183L597 182z"/>
<path style="fill:#03479d; stroke:none;" d="M126 183L127 184L126 183z"/>
<path style="fill:#030302; stroke:none;" d="M505 183L506 184L505 183z"/>
<path style="fill:#0283d9; stroke:none;" d="M506 183L507 184L506 183M510 183L511 184L510 183z"/>
<path style="fill:#030302; stroke:none;" d="M512 183L513 184L512 183z"/>
<path style="fill:#03479d; stroke:none;" d="M560 183L561 184L560 183z"/>
<path style="fill:#0283d9; stroke:none;" d="M569 183L570 184L569 183z"/>
<path style="fill:#b41320; stroke:none;" d="M55.3333 184.667L55.6667 185.333L55.3333 184.667z"/>
<path style="fill:#030302; stroke:none;" d="M515 184L516 185L515 184z"/>
<path style="fill:#03479d; stroke:none;" d="M561 184L562 185L561 184z"/>
<path style="fill:#0283d9; stroke:none;" d="M588 184L589 185L588 184z"/>
<path style="fill:#03479d; stroke:none;" d="M589 184L590 185L589 184z"/>
<path style="fill:#030302; stroke:none;" d="M596 184L597 185L596 184M641 184L642 185L641 184z"/>
<path style="fill:#03479d; stroke:none;" d="M558.667 185.333L559.333 185.667L558.667 185.333z"/>
<path style="fill:#0283d9; stroke:none;" d="M560 185L561 186L560 185z"/>
<path style="fill:#03479d; stroke:none;" d="M590.333 185.667L590.667 186.333L590.333 185.667M595 185L595 187L597 187L597 185L595 185M478 186L479 187L478 186M540 186L540 188L542 186L540 186z"/>
<path style="fill:#030302; stroke:none;" d="M558 186L559 187L558 186z"/>
<path style="fill:#0283d9; stroke:none;" d="M562 186L563 187L562 186M566 186L567 187L566 186M582 188L585 187L582 188z"/>
<path style="fill:#030302; stroke:none;" d="M642 186L643 187L642 186z"/>
<path style="fill:#03479d; stroke:none;" d="M127 187L128 188L127 187z"/>
<path style="fill:#0283d9; stroke:none;" d="M541 187L542 188L541 187M558 187L559 188L558 187z"/>
<path style="fill:#030302; stroke:none;" d="M583 187L584 188L583 187z"/>
<path style="fill:#03479d; stroke:none;" d="M584 187L584 188L590 189L590 188L584 187z"/>
<path style="fill:#030302; stroke:none;" d="M590 187L591 188L590 187M596 187L597 188L596 187z"/>
<path style="fill:#03479d; stroke:none;" d="M479 188L480 189L479 188z"/>
<path style="fill:#0283d9; stroke:none;" d="M517 188L517 191L519 190L519 189L517 188M559 188L560 189L559 188z"/>
<path style="fill:#03479d; stroke:none;" d="M582 188L582 190L584 188L582 188z"/>
<path style="fill:#b41320; stroke:none;" d="M590 188L591 189L590 188z"/>
<path style="fill:#03479d; stroke:none;" d="M596.667 188.333L597.333 188.667L596.667 188.333z"/>
<path style="fill:#0283d9; stroke:none;" d="M642 188L643 189L642 188z"/>
<path style="fill:#030302; stroke:none;" d="M643 188L644 189L643 188z"/>
<path style="fill:#03479d; stroke:none;" d="M56 189L57 190L56 189z"/>
<path style="fill:#0283d9; stroke:none;" d="M560 189L561 190L560 189z"/>
<path style="fill:#030302; stroke:none;" d="M597 189L599 192L597 189M644 189L645 190L644 189z"/>
<path style="fill:#03479d; stroke:none;" d="M480 190L480 194L481 194L480 190M518 190L519 191L518 190M560 190L561 191L560 190M572.333 190.667L572.667 191.333L572.333 190.667z"/>
<path style="fill:#030302; stroke:none;" d="M573.333 190.667L573.667 191.333L573.333 190.667z"/>
<path style="fill:#03479d; stroke:none;" d="M575 192L575 193L582 191L575 192M527 191L528 192L527 191z"/>
<path style="fill:#0283d9; stroke:none;" d="M540 191L541 192L540 191z"/>
<path style="fill:#03479d; stroke:none;" d="M574 191L575 192L574 191M597 191L598 192L597 191M599.333 191.667L599.667 192.333L599.333 191.667z"/>
<path style="fill:#030302; stroke:none;" d="M645 191L646 192L645 191z"/>
<path style="fill:#b41320; stroke:none;" d="M57 192L58 193L57 192z"/>
<path style="fill:#03479d; stroke:none;" d="M571 192L567 203L567 204L571 204L571 192z"/>
<path style="fill:#030302; stroke:none;" d="M600 192L601 193L600 192z"/>
<path style="fill:#03479d; stroke:none;" d="M601 192L601 194L603 194L601 192z"/>
<path style="fill:#0283d9; stroke:none;" d="M645 192L646 193L645 192z"/>
<path style="fill:#030302; stroke:none;" d="M647 192L648 193L647 192z"/>
<path style="fill:#03479d; stroke:none;" d="M57 193L58 194L57 193M113 193L114 194L113 193z"/>
<path style="fill:#0283d9; stroke:none;" d="M576 193L577 194L576 193z"/>
<path style="fill:#030302; stroke:none;" d="M649 193L650 194L649 193z"/>
<path style="fill:#03479d; stroke:none;" d="M58 194L59 195L58 194z"/>
<path style="fill:#b41320; stroke:none;" d="M65 194L66 195L65 194M82 194L83 195L82 194z"/>
<path style="fill:#03479d; stroke:none;" d="M512 194L513 195L512 194M527 194L528 195L527 194z"/>
<path style="fill:#0283d9; stroke:none;" d="M528.667 194.333L529.333 194.667L528.667 194.333z"/>
<path style="fill:#03479d; stroke:none;" d="M541 194L542 195L541 194z"/>
<path style="fill:#0283d9; stroke:none;" d="M542 194L543 195L542 194z"/>
<path style="fill:#030302; stroke:none;" d="M602 194L603 195L602 194z"/>
<path style="fill:#03479d; stroke:none;" d="M44 195L45 196L44 195z"/>
<path style="fill:#0283d9; stroke:none;" d="M512 195L513 196L512 195M560 195L560 198L561 198L560 195z"/>
<path style="fill:#03479d; stroke:none;" d="M601 195L605 199L601 195M127 196L127 199L128 199L127 196z"/>
<path style="fill:#0283d9; stroke:none;" d="M543 196L544 197L543 196z"/>
<path style="fill:#030302; stroke:none;" d="M601 196L602 197L601 196z"/>
<path style="fill:#03479d; stroke:none;" d="M483 197L484 198L483 197z"/>
<path style="fill:#0283d9; stroke:none;" d="M512 197L513 198L512 197z"/>
<path style="fill:#03479d; stroke:none;" d="M543 197L544 198L543 197z"/>
<path style="fill:#030302; stroke:none;" d="M602 197L603 198L602 197z"/>
<path style="fill:#0283d9; stroke:none;" d="M615 197L616 198L615 197z"/>
<path style="fill:#b41320; stroke:none;" d="M616 197L617 198L616 197z"/>
<path style="fill:#03479d; stroke:none;" d="M45 198L46 199L45 198z"/>
<path style="fill:#b41320; stroke:none;" d="M59.3333 198.667L59.6667 199.333L59.3333 198.667z"/>
<path style="fill:#0283d9; stroke:none;" d="M484 198L485 199L484 198z"/>
<path style="fill:#03479d; stroke:none;" d="M511 198L512 199L511 198z"/>
<path style="fill:#030302; stroke:none;" d="M605 198L606 199L605 198z"/>
<path style="fill:#03479d; stroke:none;" d="M606 198L609 200L606 198z"/>
<path style="fill:#0283d9; stroke:none;" d="M611 198L612 199L611 198z"/>
<path style="fill:#03479d; stroke:none;" d="M612 198L612 199L619 204L620 204L619 198L612 198z"/>
<path style="fill:#030302; stroke:none;" d="M617 198L618 199L617 198z"/>
<path style="fill:#03479d; stroke:none;" d="M543 199L544 200L543 199z"/>
<path style="fill:#0283d9; stroke:none;" d="M559.333 199.667L559.667 200.333L559.333 199.667M569.333 199.667L569.667 200.333L569.333 199.667z"/>
<path style="fill:#030302; stroke:none;" d="M609.667 199.333L610.333 199.667L609.667 199.333z"/>
<path style="fill:#03479d; stroke:none;" d="M611 199L612 200L611 199z"/>
<path style="fill:#0283d9; stroke:none;" d="M485 200L486 201L485 200M617.333 200.667L617.667 201.333L617.333 200.667z"/>
<path style="fill:#03479d; stroke:none;" d="M628 203L629 203L632 201C629.588 199.645 628.568 200.351 628 203M60.3333 201.667L60.6667 202.333L60.3333 201.667M543 201L544 202L543 201z"/>
<path style="fill:#0283d9; stroke:none;" d="M545 201L546 202L545 201z"/>
<path style="fill:#03479d; stroke:none;" d="M552 201L554 203L552 201z"/>
<path style="fill:#0283d9; stroke:none;" d="M553 201L554 202L553 201z"/>
<path style="fill:#03479d; stroke:none;" d="M559 201L558 204L561 204L559 201M632.333 201.667L632.667 202.333L632.333 201.667z"/>
<path style="fill:#0283d9; stroke:none;" d="M640 201L640 203L642 203L640 201z"/>
<path style="fill:#03479d; stroke:none;" d="M641 201L642 202L641 201z"/>
<path style="fill:#030302; stroke:none;" d="M652.333 201.667L652.667 202.333L652.333 201.667z"/>
<path style="fill:#03479d; stroke:none;" d="M117 202L118 203L117 202M124 202L125 203L124 202M486 202L487 203L486 202z"/>
<path style="fill:#0283d9; stroke:none;" d="M543 202L544 203L543 202z"/>
<path style="fill:#03479d; stroke:none;" d="M546.667 202.333L547.333 202.667L546.667 202.333z"/>
<path style="fill:#0283d9; stroke:none;" d="M548.667 202.333L549.333 202.667L548.667 202.333z"/>
<path style="fill:#03479d; stroke:none;" d="M550.667 202.333L551.333 202.667L550.667 202.333z"/>
<path style="fill:#030302; stroke:none;" d="M618 202L619 203L618 202z"/>
<path style="fill:#03479d; stroke:none;" d="M637 202L637 203L640 203L637 202M642 202L643 203L642 202M510 203L511 204L510 203M554 203L555 204L554 203z"/>
<path style="fill:#0283d9; stroke:none;" d="M555 203L555 204L558 204L555 203M561.333 203.667L561.667 204.333L561.333 203.667M563 205L568 205L563 205z"/>
<path style="fill:#03479d; stroke:none;" d="M610 203L611 204L610 203z"/>
<path style="fill:#030302; stroke:none;" d="M620 203L622 205L620 203z"/>
<path style="fill:#03479d; stroke:none;" d="M621 203L622 204L621 203M629 203L628 209L629 209L629 203M633 203L633 204L636 204L636 203L633 203z"/>
<path style="fill:#0283d9; stroke:none;" d="M634 203L635 204L634 203M636 203L637 204L636 203z"/>
<path style="fill:#03479d; stroke:none;" d="M643 203L643 204L645 207L646 207L643 203z"/>
<path style="fill:#0283d9; stroke:none;" d="M645 203L646 204L645 203M652 203L653 204L652 203z"/>
<path style="fill:#03479d; stroke:none;" d="M487 204L488 205L487 204M494 204L495 205L494 204M543 204L544 205L543 204z"/>
<path style="fill:#b41320; stroke:none;" d="M562 204L563 205L562 204z"/>
<path style="fill:#03479d; stroke:none;" d="M565 204L566 213L567 213L565 204z"/>
<path style="fill:#030302; stroke:none;" d="M566 204L567 205L566 204z"/>
<path style="fill:#03479d; stroke:none;" d="M600 204L600 206L602 206L600 204z"/>
<path style="fill:#0283d9; stroke:none;" d="M601 204L602 205L601 204z"/>
<path style="fill:#03479d; stroke:none;" d="M622 204L616 206L616 207L626 210L621 207L622 204z"/>
<path style="fill:#f5e322; stroke:none;" d="M92 205L93 206L92 205z"/>
<path style="fill:#0283d9; stroke:none;" d="M599 205L600 206L599 205z"/>
<path style="fill:#b41320; stroke:none;" d="M622 205L623 206L622 205z"/>
<path style="fill:#0283d9; stroke:none;" d="M608 206L609 207L608 206z"/>
<path style="fill:#030302; stroke:none;" d="M621 206L622 207L621 206z"/>
<path style="fill:#03479d; stroke:none;" d="M544 207L545 208L544 207z"/>
<path style="fill:#0283d9; stroke:none;" d="M567 207L568 208L567 207z"/>
<path style="fill:#03479d; stroke:none;" d="M603.333 207.667L603.667 208.333L603.333 207.667M614.667 207.333L615.333 207.667L614.667 207.333z"/>
<path style="fill:#0283d9; stroke:none;" d="M629 207L630 208L629 207z"/>
<path style="fill:#03479d; stroke:none;" d="M644 207L645 208L644 207z"/>
<path style="fill:#0283d9; stroke:none;" d="M651 207L652 208L651 207z"/>
<path style="fill:#03479d; stroke:none;" d="M652 207L652 208L655 208L652 207M612 208L610 213L611 213L614 208L612 208z"/>
<path style="fill:#0283d9; stroke:none;" d="M622 208L623 209L622 208z"/>
<path style="fill:#03479d; stroke:none;" d="M626 208L627 209L626 208z"/>
<path style="fill:#0283d9; stroke:none;" d="M627 208L628 209L627 208z"/>
<path style="fill:#03479d; stroke:none;" d="M645 208L645 209L648 209L645 208z"/>
<path style="fill:#f5e322; stroke:none;" d="M63 209L64 210L63 209z"/>
<path style="fill:#0283d9; stroke:none;" d="M545 209L546 210L545 209M639 209L640 210L639 209z"/>
<path style="fill:#03479d; stroke:none;" d="M640 209L640 210L643 210L640 209z"/>
<path style="fill:#b41320; stroke:none;" d="M63 210L64 211L63 210z"/>
<path style="fill:#03479d; stroke:none;" d="M545 210L546 211L545 210M634 210L635 211L634 210M50 211L51 212L50 211M63 211L64 212L63 211M603 211L598 216L603 211z"/>
<path style="fill:#0283d9; stroke:none;" d="M611 211L612 212L611 211z"/>
<path style="fill:#03479d; stroke:none;" d="M633 211L628 219C631.09 217.036 633.905 214.891 633 211z"/>
<path style="fill:#0283d9; stroke:none;" d="M632 212L633 213L632 212z"/>
<path style="fill:#03479d; stroke:none;" d="M637 212L631 222C634.946 220.063 638.35 216.623 637 212z"/>
<path style="fill:#030302; stroke:none;" d="M566 213L566 215L568 215L566 213z"/>
<path style="fill:#0283d9; stroke:none;" d="M567 213L568 214L567 213M607 213L609 215L609 213L607 213z"/>
<path style="fill:#03479d; stroke:none;" d="M609 213L610 214L609 213z"/>
<path style="fill:#0283d9; stroke:none;" d="M631 213L632 214L631 213z"/>
<path style="fill:#03479d; stroke:none;" d="M544 214L544 217L545 217L544 214M568 214L568 215L574 217L574 216L568 214z"/>
<path style="fill:#0283d9; stroke:none;" d="M598 214L599 215L598 214z"/>
<path style="fill:#03479d; stroke:none;" d="M606 214L606 218L607 218L608 214L606 214z"/>
<path style="fill:#0283d9; stroke:none;" d="M630 214L631 215L630 214z"/>
<path style="fill:#b41320; stroke:none;" d="M72 216L73 217L72 216z"/>
<path style="fill:#0283d9; stroke:none;" d="M571 216L572 217L571 216M544 217L545 218L544 217z"/>
<path style="fill:#030302; stroke:none;" d="M574 217L575 218L574 217z"/>
<path style="fill:#0283d9; stroke:none;" d="M628 217L629 218L628 217z"/>
<path style="fill:#03479d; stroke:none;" d="M574 218L576 220L576 218L574 218M605 218L606 219L605 218z"/>
<path style="fill:#0283d9; stroke:none;" d="M604.667 219.333L605.333 219.667L604.667 219.333z"/>
<path style="fill:#03479d; stroke:none;" d="M627 219L628 220L627 219z"/>
<path style="fill:#0283d9; stroke:none;" d="M574 220L575 221L574 220z"/>
<path style="fill:#030302; stroke:none;" d="M575 220L576 221L575 220z"/>
<path style="fill:#03479d; stroke:none;" d="M604.333 220.667L604.667 221.333L604.333 220.667M574 221L573 232L580 231L580 230L573 229L574 221z"/>
<path style="fill:#b41320; stroke:none;" d="M90 222L91 223L90 222z"/>
<path style="fill:#03479d; stroke:none;" d="M543 222L544 223L543 222z"/>
<path style="fill:#0283d9; stroke:none;" d="M574 222L575 223L574 222M603.667 222.333L604.333 222.667L603.667 222.333z"/>
<path style="fill:#03479d; stroke:none;" d="M627 222L628 223L627 222z"/>
<path style="fill:#0283d9; stroke:none;" d="M590 223L591 224L590 223z"/>
<path style="fill:#03479d; stroke:none;" d="M591.667 223.333L592.333 223.667L591.667 223.333M603 223L604 224L603 223z"/>
<path style="fill:#0283d9; stroke:none;" d="M629 223L630 224L629 223z"/>
<path style="fill:#03479d; stroke:none;" d="M590 224L591 225L590 224M593.667 224.333L594.333 224.667L593.667 224.333M602.333 224.667L602.667 225.333L602.333 224.667M630.333 224.667L630.667 225.333L630.333 224.667z"/>
<path style="fill:#0283d9; stroke:none;" d="M590 225L591 226L590 225z"/>
<path style="fill:#03479d; stroke:none;" d="M595.667 225.333L596.333 225.667L595.667 225.333M545 226L546 227L545 226z"/>
<path style="fill:#0283d9; stroke:none;" d="M572 226L573 227L572 226M591 226L592 227L591 226M597 226L598 227L597 226z"/>
<path style="fill:#03479d; stroke:none;" d="M598 226L598 227L602 227L598 226M546 227L547 228L546 227M591 227L592 228L591 227M590 228L591 229L590 228M548 229L549 230L548 229M588.667 229.333L589.333 229.667L588.667 229.333z"/>
<path style="fill:#030302; stroke:none;" d="M573 230L574 231L573 230z"/>
<path style="fill:#0283d9; stroke:none;" d="M580 230L581 231L580 230z"/>
<path style="fill:#03479d; stroke:none;" d="M586.667 230.333L587.333 230.667L586.667 230.333M581 231L581 232L586 232L581 231z"/>
<path style="fill:#0283d9; stroke:none;" d="M573 232L574 233L573 232z"/>
<path style="fill:#03479d; stroke:none;" d="M630.333 232.667L630.667 233.333L630.333 232.667M549 233L550 234L549 233M573 233L574 234L573 233z"/>
<path style="fill:#0283d9; stroke:none;" d="M574.333 234.667L574.667 235.333L574.333 234.667z"/>
<path style="fill:#03479d; stroke:none;" d="M550 236L550 241L551 241L550 236M575 236L576 237L575 236M576.333 238.667L576.667 239.333L576.333 238.667M631 238L632 239L631 238z"/>
<path style="fill:#0283d9; stroke:none;" d="M576 240L577 241L576 240z"/>
<path style="fill:#03479d; stroke:none;" d="M630 240L631 241L630 240M549 241L550 242L549 241M571.667 241.333L572.333 241.667L571.667 241.333M566.667 242.333L567.333 242.667L566.667 242.333M570 242L571 243L570 242M575 242L576 243L575 242M629 242L630 243L629 242M552.667 243.333L553.333 243.667L552.667 243.333z"/>
<path style="fill:#0283d9; stroke:none;" d="M554 243L555 244L554 243z"/>
<path style="fill:#03479d; stroke:none;" d="M557.667 243.333L558.333 243.667L557.667 243.333M561 243L562 244L561 243M549 244L550 245L549 244M576 244L577 245L576 244z"/>
<path style="fill:#0283d9; stroke:none;" d="M587 245L588 246L587 245z"/>
<path style="fill:#03479d; stroke:none;" d="M588 245L589 246L588 245M576.333 246.667L576.667 247.333L576.333 246.667M582 246L583 247L582 246M580 247L581 248L580 247M588 247L588 250L589 250L588 247M628 247L629 248L628 247M577 248L577 249L580 249L577 248z"/>
<path style="fill:#0283d9; stroke:none;" d="M610 250L611 251L610 250z"/>
<path style="fill:#03479d; stroke:none;" d="M611.667 250.333L612.333 250.667L611.667 250.333z"/>
<path style="fill:#0283d9; stroke:none;" d="M627 250L628 251L627 250z"/>
<path style="fill:#03479d; stroke:none;" d="M589 251L590 252L589 251M610.333 251.667L610.667 252.333L610.333 251.667z"/>
<path style="fill:#0283d9; stroke:none;" d="M613 251L614 252L613 251z"/>
<path style="fill:#03479d; stroke:none;" d="M591.667 252.333L592.333 252.667L591.667 252.333M594.667 253.333L595.333 253.667L594.667 253.333M613 253L614 254L613 253M609 254L610 255L609 254M615 254L616 255L615 254M605 255L605 256L608 256L605 255M616 256L617 257L616 256M632 256L633 257L632 256M633 257L634 258L633 257M617 258L618 259L617 258M634 258L635 259L634 258M619.667 259.333L620.333 259.667L619.667 259.333M622 259L623 260L622 259M635 259L636 260L635 259M642 259L643 260L642 259z"/>
<path style="fill:#0283d9; stroke:none;" d="M645 259L646 260L645 259z"/>
<path style="fill:#03479d; stroke:none;" d="M623 260L624 261L623 260z"/>
<path style="fill:#0283d9; stroke:none;" d="M642 260L643 261L642 260z"/>
<path style="fill:#03479d; stroke:none;" d="M637 261L638 262L637 261M639 261L640 262L639 261z"/>
<path style="fill:#0283d9; stroke:none;" d="M642 262L643 263L642 262z"/>
<path style="fill:#03479d; stroke:none;" d="M629.333 264.667L629.667 265.333L629.333 264.667M630.667 266.333L631.333 266.667L630.667 266.333M632 267L633 268L632 267M633 268L634 269L633 268M634 270L635 271L634 270M643 271L644 272L643 271z"/>
<path style="fill:#0283d9; stroke:none;" d="M644 271L645 272L644 271z"/>
<path style="fill:#03479d; stroke:none;" d="M645 271L646 272L645 271M635 272L636 273L635 272M641 272L642 273L641 272M636.667 273.333L637.333 273.667L636.667 273.333M639 273L640 274L639 273M645 273L646 274L645 273z"/>
</svg>
